PathFileType	4	(X/Y/Z)	OpenSim_Sub01_EMGBaseline_Magnet.trc
DataRate	CameraRate	NumFrames	NumMarkers	Units	OrigDataRate	OrigDataStartFrame	OrigNumFrames
100	100	26	8	m	100	1902	7604
Frame#	Time	torso_imu_offset_imu	pelvis_imu_offset_imu	tibia_r_imu_offset_imu	femur_r_imu_offset_imu	tibia_l_imu_offset_imu	femur_l_imu_offset_imu	toes_r_imu_offset_imu	toes_l_imu_offset_imu
				X1	Y1	Z1	X2	Y2	Z2	X3	Y3	Z3	X4	Y4	Z4	X5	Y5	Z5	X6	Y6	Z6	X7	Y7	Z7	X8		Y8	Z8	

1902	19.01000000	-0.93283994	-0.06281930	0.11818812	-0.71666175	0.05653032	-0.61031382	-0.52727946	-0.61750929	0.00325671	-0.62631778	-0.53110008	0.12978167	-0.66447946	0.44390400	0.08847161	-0.53335403	-0.16259840	0.20481310	-0.70811900	-0.12771083	-0.31304214	-0.66924416	-0.12637055	-0.42708923
1903	19.02000000	-0.93293394	-0.06590277	0.11797385	-0.71739884	0.05630810	-0.60688242	-0.52046607	-0.62068401	0.00098701	-0.62251611	-0.53515355	0.13014922	-0.68122429	0.41863391	0.09697081	-0.53476431	-0.15599794	0.20481244	-0.70231793	-0.13064910	-0.31024220	-0.65237420	-0.13890421	-0.45329919
1904	19.03000000	-0.93410956	-0.06721137	0.11919273	-0.71397439	0.05508985	-0.60484293	-0.51695612	-0.62418366	-0.00109869	-0.61568417	-0.54082116	0.13034047	-0.69475686	0.39376545	0.10376577	-0.53495713	-0.14815618	0.20453455	-0.69731339	-0.13297746	-0.30700143	-0.63574033	-0.15055009	-0.47396420
1905	19.04000000	-0.93494428	-0.06752693	0.12021845	-0.70983429	0.05430227	-0.60444420	-0.51514760	-0.62864963	-0.00256610	-0.60820595	-0.54688310	0.13064809	-0.70539773	0.36929639	0.10904955	-0.53391382	-0.14129923	0.20446079	-0.69352900	-0.13419405	-0.30444992	-0.61919933	-0.16262351	-0.49131873
1906	19.05000000	-0.93393623	-0.06792714	0.11918064	-0.70919796	0.05533486	-0.60558350	-0.51291436	-0.63468093	-0.00326927	-0.60295493	-0.55186201	0.13127220	-0.71379609	0.34530409	0.11330492	-0.53190718	-0.13776482	0.20500580	-0.69102256	-0.13394800	-0.30395519	-0.60256874	-0.17670391	-0.50828974
1907	19.06000000	-0.93174110	-0.06878864	0.11679311	-0.71221156	0.05797871	-0.60716325	-0.50948866	-0.64165840	-0.00421443	-0.60042379	-0.55530632	0.13171513	-0.72098979	0.32313020	0.11755366	-0.52977706	-0.13667394	0.20600467	-0.68897236	-0.13280983	-0.30512353	-0.58693915	-0.19152389	-0.52394616
1908	19.07000000	-0.93067474	-0.06994842	0.11575789	-0.71588619	0.06079471	-0.60732074	-0.50514838	-0.64802568	-0.00729389	-0.59927263	-0.55755422	0.13094252	-0.72831512	0.30508912	0.12323172	-0.52879939	-0.13467231	0.20684664	-0.68588015	-0.13205904	-0.30620598	-0.57438050	-0.20362576	-0.53438855
1909	19.08000000	-0.93207394	-0.07132180	0.11737450	-0.71789512	0.06275774	-0.60520647	-0.49999895	-0.65292923	-0.01332800	-0.59839730	-0.55905481	0.12847191	-0.73609236	0.29284168	0.13077053	-0.52963544	-0.12973346	0.20729031	-0.68096898	-0.13251988	-0.30613043	-0.56611883	-0.21116682	-0.53765561
1910	19.09000000	-0.93423953	-0.07309800	0.11862301	-0.71811878	0.06416673	-0.60303996	-0.49355358	-0.65767546	-0.01988407	-0.59753412	-0.56052641	0.12550181	-0.74160001	0.28603227	0.13758501	-0.53108671	-0.12396571	0.20822582	-0.67565671	-0.13360972	-0.30593952	-0.56079780	-0.21727059	-0.53777211
1911	19.10000000	-0.93502710	-0.07548342	0.11599636	-0.71690767	0.06555092	-0.60337681	-0.48528194	-0.66383479	-0.02412499	-0.59658350	-0.56268051	0.12343250	-0.74182013	0.28394564	0.14073886	-0.53170716	-0.12014479	0.21066820	-0.67169247	-0.13453341	-0.30695747	-0.55673361	-0.22567482	-0.53952101
1912	19.11000000	-0.93402947	-0.07818382	0.11064768	-0.71553967	0.06722233	-0.60531120	-0.47564060	-0.67095234	-0.02616173	-0.59557562	-0.56538092	0.12203268	-0.73771387	0.28606320	0.14038557	-0.53149150	-0.11959527	0.21437038	-0.66970977	-0.13520793	-0.30887099	-0.55448669	-0.23556935	-0.54247056
1913	19.12000000	-0.93217675	-0.08051976	0.10731586	-0.71600578	0.06932568	-0.60527384	-0.46584561	-0.67701490	-0.02837409	-0.59464049	-0.56783918	0.11981572	-0.73330434	0.29201763	0.13905657	-0.53154311	-0.12252408	0.21811393	-0.66948340	-0.13609831	-0.31010670	-0.55634422	-0.24264375	-0.54217623
1914	19.13000000	-0.93044730	-0.08213843	0.10857144	-0.71929342	0.07184998	-0.60120994	-0.45683102	-0.68099245	-0.03233557	-0.59382932	-0.56957684	0.11602870	-0.73114243	0.30126181	0.13851949	-0.53245606	-0.12846306	0.22089592	-0.67084349	-0.13752676	-0.30968843	-0.56354237	-0.24350561	-0.53609941
1915	19.14000000	-0.92986062	-0.08368691	0.11026794	-0.72335347	0.07433432	-0.59576829	-0.44863488	-0.68489543	-0.03705050	-0.59295150	-0.57108646	0.11219502	-0.72917043	0.31270287	0.13809077	-0.53322612	-0.13502346	0.22242807	-0.67385023	-0.13934925	-0.30851080	-0.57406211	-0.23775777	-0.52767155
1916	19.15000000	-0.93130859	-0.08590592	0.10738429	-0.72570630	0.07630728	-0.59228907	-0.44106753	-0.69113344	-0.04112724	-0.59177557	-0.57297517	0.11012229	-0.72468923	0.32510158	0.13676182	-0.53263540	-0.13961815	0.22267436	-0.67859680	-0.14132932	-0.30769952	-0.58539031	-0.22571410	-0.52111615
1917	19.16000000	-0.93365959	-0.08817146	0.10039550	-0.72583130	0.07838449	-0.59144458	-0.43301107	-0.69967733	-0.04435701	-0.59012791	-0.57487823	0.10957351	-0.71815249	0.33653932	0.13544134	-0.53069000	-0.14200476	0.22339623	-0.68503334	-0.14313763	-0.30666253	-0.59662477	-0.21004141	-0.51599269
1918	19.17000000	-0.93422533	-0.08880984	0.09400618	-0.72471575	0.08201771	-0.59185375	-0.42263364	-0.70862100	-0.04744139	-0.58787992	-0.57568322	0.10873823	-0.71244000	0.34457554	0.13651310	-0.52833795	-0.14374520	0.22773755	-0.69299972	-0.14437373	-0.30348608	-0.60810341	-0.19521669	-0.50827137
1919	19.18000000	-0.93163799	-0.08723759	0.09134390	-0.72320128	0.08768875	-0.59253802	-0.40897825	-0.71656598	-0.05083599	-0.58549142	-0.57488467	0.10640832	-0.70937569	0.34824235	0.14119459	-0.52613679	-0.14548262	0.23715726	-0.70213768	-0.14517317	-0.29704503	-0.62022145	-0.18429179	-0.49525098
1920	19.19000000	-0.92857249	-0.08619102	0.09052701	-0.72158141	0.09293346	-0.59387176	-0.39374204	-0.72376565	-0.05419604	-0.58516738	-0.57383772	0.10328569	-0.70746062	0.35098768	0.14712508	-0.52341182	-0.14499215	0.24800209	-0.71150865	-0.14726968	-0.28865857	-0.63344947	-0.17594553	-0.47845261
1921	19.20000000	-0.92822023	-0.08877544	0.08887385	-0.72008820	0.09493795	-0.59633769	-0.37898479	-0.73074524	-0.05712173	-0.58918080	-0.57411487	0.10036623	-0.70467709	0.35682190	0.15149606	-0.51939131	-0.13980479	0.25588731	-0.72016638	-0.15253067	-0.27993692	-0.64814448	-0.16817415	-0.46013146
1922	19.21000000	-0.93031749	-0.09443355	0.08559086	-0.71955027	0.09380480	-0.59829696	-0.36485016	-0.73752791	-0.06060424	-0.59599484	-0.57539321	0.09776118	-0.70043766	0.36595570	0.15469790	-0.51526048	-0.13173281	0.25962616	-0.72865541	-0.16040302	-0.27008293	-0.66275578	-0.16085812	-0.44184724
1923	19.22000000	-0.93194158	-0.09978937	0.08133791	-0.72125483	0.09188127	-0.59647895	-0.35000725	-0.74375048	-0.06670474	-0.60114137	-0.57589118	0.09490072	-0.69525576	0.37567522	0.15958230	-0.51370996	-0.12588295	0.26049381	-0.73866731	-0.16847096	-0.25644668	-0.67426510	-0.15532803	-0.42462433
1924	19.23000000	-0.93124323	-0.10247747	0.07678668	-0.72560163	0.09100844	-0.58939746	-0.33376517	-0.74914217	-0.07647143	-0.60207655	-0.57434757	0.09119899	-0.68954125	0.38384011	0.16756537	-0.51603864	-0.12581781	0.25998776	-0.75118365	-0.17519940	-0.23695257	-0.68098220	-0.15244883	-0.40956753
1925	19.24000000	-0.92976585	-0.10335062	0.07253291	-0.73031837	0.09135161	-0.58099341	-0.31744741	-0.75373646	-0.08786074	-0.60219858	-0.57115875	0.08607436	-0.68331203	0.39023765	0.17560931	-0.51929493	-0.13025982	0.26007805	-0.76498858	-0.18181254	-0.21137310	-0.68527510	-0.15159102	-0.39806147
1926	19.25000000	-0.92954900	-0.10381128	0.06911963	-0.73279629	0.09276985	-0.57592308	-0.30261204	-0.75765749	-0.09846401	-0.60573647	-0.56697333	0.07897724	-0.67656122	0.39505573	0.18013575	-0.51995809	-0.13705841	0.26264320	-0.77845709	-0.18995965	-0.17978770	-0.69005728	-0.15187490	-0.39137589
1927	19.26000000	-0.93067041	-0.10458373	0.06651084	-0.73278387	0.09517521	-0.57453292	-0.28875460	-0.76154438	-0.10896278	-0.61291220	-0.56162839	0.06982490	-0.66999568	0.39914343	0.18179965	-0.51774947	-0.14439028	0.26688502	-0.78992115	-0.20001733	-0.14175516	-0.69517665	-0.15281059	-0.38828709
